HIERARCHY
ROOT Hips
{
	OFFSET	0.00	0.00	0.00
	CHANNELS 6 Xposition Yposition Zposition Zrotation Xrotation Yrotation
	JOINT LeftUpLeg
	{
		OFFSET	 0.126116	-0.065224	 0.014019
		CHANNELS 3 Zrotation Xrotation Yrotation
		JOINT LeftLeg
		{
			OFFSET	 0.000000	 0.569914	 0.000000
			CHANNELS 3 Zrotation Xrotation Yrotation
			JOINT LeftFoot
			{
				OFFSET	 0.000000	 0.544423	 0.000000
				CHANNELS 3 Zrotation Xrotation Yrotation
				JOINT LeftToeBase
				{
					OFFSET	 0.000000	 0.207117	 0.000000
					CHANNELS 3 Zrotation Xrotation Yrotation
					End Site
					{
						OFFSET	 0.000000	 0.207117	 0.000000
					}
				}
			}
		}
	}
	JOINT RightUpLeg
	{
		OFFSET	-0.124023	-0.065224	 0.008373
		CHANNELS 3 Zrotation Xrotation Yrotation
		JOINT RightLeg
		{
			OFFSET	 0.000000	 0.570047	 0.000000
			CHANNELS 3 Zrotation Xrotation Yrotation
			JOINT RightFoot
			{
				OFFSET	 0.000000	 0.544354	 0.000000
				CHANNELS 3 Zrotation Xrotation Yrotation
				JOINT RightToeBase
				{
					OFFSET	 0.000000	 0.207540	 0.000000
					CHANNELS 3 Zrotation Xrotation Yrotation
					End Site
					{
						OFFSET	 0.000000	 0.207540	 0.000000
					}
				}
			}
		}
	}
	JOINT Spine
	{
		OFFSET	 0.000184	 0.117403	 0.007763
		CHANNELS 3 Zrotation Xrotation Yrotation
		JOINT Spine1
		{
			OFFSET	 0.000000	 0.137269	 0.000000
			CHANNELS 3 Zrotation Xrotation Yrotation
			JOINT Spine2
			{
				OFFSET	 0.000000	 0.156879	 0.000000
				CHANNELS 3 Zrotation Xrotation Yrotation
				JOINT LeftShoulder
				{
					OFFSET	 0.080501	 0.160143	 0.002496
					CHANNELS 3 Zrotation Xrotation Yrotation
					JOINT LeftArm
					{
						OFFSET	 0.000000	 0.164363	 0.000000
						CHANNELS 3 Zrotation Xrotation Yrotation
						JOINT LeftForeArm
						{
							OFFSET	 0.000000	 0.364576	 0.000000
							CHANNELS 3 Zrotation Xrotation Yrotation
							JOINT LeftHand
							{
								OFFSET	 0.000000	 0.360812	 0.000000
								CHANNELS 3 Zrotation Xrotation Yrotation
								JOINT LeftHandIndex1
								{
									OFFSET	 0.000000	 0.086006	 0.000000
									CHANNELS 3 Zrotation Xrotation Yrotation
									JOINT LeftHandIndex2
									{
										OFFSET	 0.000000	 0.047237	 0.000000
										CHANNELS 3 Zrotation Xrotation Yrotation
										JOINT LeftHandIndex3
										{
											OFFSET	-0.004284	 0.038165	 0.000551
											CHANNELS 3 Zrotation Xrotation Yrotation
											End Site
											{
												OFFSET	-0.004284	 0.038165	 0.000551
											}
										}
									}
								}
							}
						}
					}
				}
				JOINT Neck
				{
					OFFSET	 0.000000	 0.176489	 0.000000
					CHANNELS 3 Zrotation Xrotation Yrotation
					JOINT Head
					{
						OFFSET	 0.000000	 0.077941	 0.001747
						CHANNELS 3 Zrotation Xrotation Yrotation
						End Site
						{
							OFFSET	 0.000000	 0.077941	 0.001747
						}
					}
				}
				JOINT RightShoulder
				{
					OFFSET	-0.080363	 0.159706	-0.000306
					CHANNELS 3 Zrotation Xrotation Yrotation
					JOINT RightArm
					{
						OFFSET	 0.000000	 0.164196	 0.000000
						CHANNELS 3 Zrotation Xrotation Yrotation
						JOINT RightForeArm
						{
							OFFSET	 0.000000	 0.365611	 0.000000
							CHANNELS 3 Zrotation Xrotation Yrotation
							JOINT RightHand
							{
								OFFSET	 0.000000	 0.360648	 0.000000
								CHANNELS 3 Zrotation Xrotation Yrotation
								JOINT RightHandIndex1
								{
									OFFSET	 0.000000	 0.069977	 0.000000
									CHANNELS 3 Zrotation Xrotation Yrotation
									JOINT RightHandIndex2
									{
										OFFSET	 0.000000	 0.052305	 0.000000
										CHANNELS 3 Zrotation Xrotation Yrotation
										JOINT RightHandIndex3
										{
											OFFSET	 0.009002	 0.042196	 0.000782
											CHANNELS 3 Zrotation Xrotation Yrotation
											End Site
											{
												OFFSET	 0.009002	 0.042196	 0.000782
											}
										}
									}
								}
							}
						}
					}
				}
			}
		}
	}
}
MOTION
Frames:    4
Frame Time: 0.03333334
-0.059361	 1.201051	-1.486971	-3.216357	 1.358290	-174.126100	 171.556900	 8.577810	-5.633114	 5.753281	-36.969670	 6.941339	 22.211420	 86.245900	-14.829680	 1.515660	 31.282290	-2.813249	 174.016900	 16.828240	 8.359375	-6.979188	-58.183830	 5.367451	 49.108090	 85.259380	-43.213090	-1.670002	 33.154900	 2.886921	-1.439187	 8.583608	-2.803504	 0.391244	 3.548994	-0.800727	-0.233462	-3.947228	-0.749705	-121.357700	 7.465553	 94.056370	 19.225930	 46.557530	-3.074687	 14.853810	-0.760007	 0.015245	 12.317670	-20.982520	 5.405422	 4.629603	 18.874330	-1.657861	-5.863905	 21.486480	 2.375395	 5.332199	 4.355739	-0.168753	-0.169140	-5.013158	-0.141164	-2.094850	-2.052532	-3.141438	 118.418100	-0.038068	-90.814740	 6.421972	 52.523750	-10.586250	-10.380590	-0.406197	 0.021617	-6.707577	-6.254386	-12.710500	-2.418428	 25.846130	 1.325781	 15.817850	 44.838570	-11.786740	-8.529583	 23.843560	-1.217878
-0.056665	 1.207157	-1.451424	-3.263532	 1.176403	-173.959900	 171.574500	 7.957694	-5.470629	 5.343679	-35.092580	 6.833836	 17.790960	 84.848740	-10.365780	 1.527111	 31.424490	-2.818653	 173.390200	 21.322470	 9.064696	-7.317170	-59.130290	 5.208802	 45.852440	 84.659110	-39.945540	-1.674994	 33.214550	 2.889421	-1.435381	 8.465803	-2.943954	 0.360972	 3.553330	-0.848819	-0.225719	-3.981847	-0.756393	-121.354100	 7.607884	 94.127040	 18.002250	 46.216600	-1.908458	 17.952260	-0.913767	 0.060488	 11.533100	-21.987430	 5.339459	 4.647995	 18.934640	-1.667676	-5.863744	 21.539460	 2.381243	 5.334475	 4.409029	-0.167785	-0.171744	-5.025261	-0.129192	-2.050796	-2.114151	-3.147745	 118.398300	-0.122015	-90.775320	 9.062726	 52.362770	-12.427060	-12.780740	-0.498704	 0.002652	-5.167518	-6.531099	-13.092720	-2.351958	 25.350240	 1.290378	 15.693870	 44.354630	-11.594990	-8.531319	 23.345790	-1.184765
-0.053745	 1.212553	-1.423281	-3.330036	 0.911201	-173.720700	 171.622900	 6.860431	-5.276280	 4.934228	-32.980400	 6.839793	 16.386080	 83.663930	-8.971640	 1.543762	 31.630560	-2.826557	 172.417800	 26.742960	 10.032160	-7.337109	-59.510560	 5.452586	 43.458370	 83.854650	-37.475850	-1.682240	 33.300960	 2.893058	-1.429857	 8.294166	-3.163626	 0.334535	 3.616820	-0.919072	-0.222932	-4.058559	-0.782975	-121.349100	 7.814139	 94.229500	 17.290300	 45.453980	-1.028586	 21.631170	-1.092844	 0.124935	 10.469810	-23.304130	 5.154553	 4.674675	 19.022020	-1.681941	-5.863522	 21.616230	 2.389721	 5.337770	 4.486248	-0.166387	-0.175511	-5.042799	-0.111844	-1.986957	-2.203453	-3.156800	 118.369800	-0.243677	-90.718320	 12.294410	 52.145400	-14.622030	-15.184810	-0.590481	-0.020117	-3.702745	-6.980918	-13.689910	-2.256687	 24.631410	 1.240441	 15.519930	 43.652680	-11.322390	-8.533271	 22.624300	-1.137014
-0.050516	 1.216967	-1.405811	-3.414329	 0.558589	-173.407300	 171.725600	 5.262609	-5.008619	 4.554089	-30.923130	 6.949903	 17.074280	 83.009730	-9.763893	 1.565851	 31.902580	-2.837126	 171.004300	 32.888580	 11.531910	-6.972380	-58.224600	 6.103802	 37.839610	 82.196890	-31.886590	-1.691825	 33.415050	 2.897884	-1.422333	 8.065640	-3.478088	 0.325810	 3.777493	-0.913574	-0.239109	-4.195180	-0.942902	-121.343100	 8.086450	 94.364800	 17.785290	 44.070720	-0.960140	 25.363230	-1.269830	 0.201912	 9.141397	-24.818100	 4.755792	 4.709952	 19.137360	-1.700850	-5.863248	 21.717580	 2.400919	 5.342119	 4.588183	-0.164548	-0.180477	-5.065954	-0.088945	-1.902675	-2.321422	-3.168609	 118.332300	-0.404334	-90.643110	 16.163300	 51.827190	-17.200940	-17.402780	-0.674231	-0.044644	-2.572218	-7.615038	-14.538110	-2.132751	 23.682120	 1.176928	 15.300260	 42.724880	-10.971650	-8.534842	 21.671590	-1.074376
